# xmcd
#
# Track frame offsets:
#	150
#	10134
#	19188
#	31145
#	43721
#	52935
#	64975
#	74460
#	86893
#	97700
#
# Disc length: 1448 seconds
#
# Revision: 0
# Processed by: cddbd v1.5.1PL2 Copyright (c) Steve Scherf et al.
# Submitted via: dBpowerAMP V4.0
#
DISCID=7905a60a
DTITLE=Jim Reeves - Country Hit Parade
DYEAR=2005
DGENRE=Country
TTITLE0=He'll Have To Go (Live) #1
TTITLE1=Billy Bayou (Live) #1
TTITLE2=Mexican Joe #1
TTITLE3=Bimbo #1
TTITLE4=Home #2
TTITLE5=Am I Losing You (Live) #3
TTITLE6=I'm Getting Better (Live) #3
TTITLE7=Drinking Tequila #9
TTITLE8=Then I'll Stop Loving You #15
TTITLE9=Have I Told You Lately That I Love You (Live)
EXTD=
EXTT0=
EXTT1=
EXTT2=
EXTT3=
EXTT4=
EXTT5=
EXTT6=
EXTT7=
EXTT8=
EXTT9=
PLAYORDER=
